<svg width="80" height="68" fill="currentColor" xmlns="http://www.w3.org/2000/svg">
    <path
        d="m66.638 62.366-.33.021c-.155.061-.301.218-.446.485-.377.697-.724.494-1.191.019a7.161 7.161 0 0 0-.476-.426 13.636 13.636 0 0 0-.259-.212l-.053-.042-.112-.088-.001-.001a20.677 20.677 0 0 1-.616-.5 6.566 6.566 0 0 1-.305-.28 4.094 4.094 0 0 1-.267-.29l-.002-.002a6.29 6.29 0 0 1-.126-.15l-.155-.197c-.104-.129-.212-.256-.323-.388-.174-.204-.354-.417-.537-.655a4.443 4.443 0 0 1-.36-.547 3.625 3.625 0 0 1-.212-.453 3.157 3.157 0 0 1-.139-.499 3.237 3.237 0 0 1-.02-.93c-.113.104-.211.193-.312.283a67.09 67.09 0 0 0-.214.194c-.073.065-.146.13-.233.21a11.614 11.614 0 0 0-.443-.633l-.11-.15-.143-.19c-.172-.23-.355-.473-.582-.785-.065-.094-.129-.187-.284-.42a6.97 6.97 0 0 1-.314-.542l-.015-.029-.013-.026-.014-.027a4.043 4.043 0 0 1-.28-.685 10.313 10.313 0 0 0-1.14-2.516c-.747-1.204-1.701-2.249-2.696-3.28-2.95-3.063-5.912-6.116-8.874-9.168l-.004-.003-4.385-4.52-.542-.562-1.476 1.486c-.689.694-1.377 1.388-2.067 2.08-3.15 3.16-6.303 6.324-9.488 9.455-1.278 1.256-2.55 2.512-3.628 3.964-.188.256-.368.518-.54.785-.043.065-.082.133-.121.2l-.033.056-.032.054-.014.022c-.096.157-.192.313-.281.475-.122.222-.234.453-.344.683a3.173 3.173 0 0 1-.054.11c-.024.046-.048.092-.069.14-.142.317-.272.645-.389.984-.089.268-.464.433-.866.558-.065.11-.128.222-.196.34l-.163.285a4.895 4.895 0 0 1-.336.51l-.11.139c-.517.663-1.039 1.331-1.623 1.937-.444.453-.71.714-.973.824a.613.613 0 0 1-.192.039.892.892 0 0 1-.392-.1 2.54 2.54 0 0 1-.217-.113 9.368 9.368 0 0 1-.45-.28l-.11-.072c-.014.06-.033.119-.052.176l-.008.023c-.009.032-.017.062-.026.258.037.09.068.179.118.363l.001.003c.012.049.025.1.049.264v.002c.005.036.01.077.012.234v.008c0 .029-.001.067-.018.21v.004c-.005.025-.009.054-.046.2v.002a1.938 1.938 0 0 1-.07.188 2.647 2.647 0 0 1-.09.178l-.004.007-.105.161-.004.005c-.01.013-.028.038-.12.155l-.137.15s-.108.108-.146.143l-.01.01-.14.127-.117.1-.03.025a20.84 20.84 0 0 1-.515.412c-.108.086-.19.148-.411.222-.015-.002-.03-.01-.132-.058l-.044-.02-.004-.004a1.027 1.027 0 0 1-.145-.129c-.04-.04-.081-.083-.18-.2-.124-.148-.27-.332-.485-.607l-.457.4v.002h-.002c-.594.522-1.186 1.041-1.768 1.567a3.69 3.69 0 0 0-.3.323c-.165.192-.329.382-.537.491-.18.094-.42.074-.66.054a3.449 3.449 0 0 0-.307-.016 2.944 2.944 0 0 0-.02-.337c-.024-.252-.049-.504.065-.64.613-.742 1.303-1.422 1.993-2.102l.095-.093c.207-.208.359-.4.412-.591l-.026-.332c-.063-.155-.22-.301-.487-.444-.696-.371-.5-.721-.03-1.198a7.59 7.59 0 0 0 .418-.483 14.02 14.02 0 0 0 .332-.427c.146-.192.3-.393.493-.629.077-.091.155-.181.276-.31.09-.096.185-.186.284-.272l.003-.003.147-.128a11.925 11.925 0 0 0 .577-.488c.202-.176.411-.36.645-.546a1.8 1.8 0 0 0 .059-.043 4.78 4.78 0 0 1 .482-.325c.136-.078.276-.147.447-.217.141-.056.29-.1.494-.147a3.132 3.132 0 0 1 .924-.03l-.299-.326a202.646 202.646 0 0 0-.39-.429 14.588 14.588 0 0 0 .673-.491v-.001l.098-.074.161-.125c.234-.182.48-.373.8-.613.093-.068.185-.133.413-.291.113-.076.227-.147.342-.215.061-.036.123-.07.185-.102l.038-.02.055-.03a4.051 4.051 0 0 1 .675-.287 10.203 10.203 0 0 0 2.49-1.176c1.188-.762 2.216-1.734 3.231-2.745 3.015-3.003 6.02-6.02 9.023-9.035l.001-.001.003-.003c1.479-1.485 2.958-2.97 4.438-4.452l.328-.33.012-.01.337-.338c-3.14-3.241-6.277-6.484-9.414-9.726l-.015-.016-.003-.002-.01-.011-5.48-5.662-1.122-1.164-.004-.003c-1.23-1.276-2.46-2.553-3.703-3.818a85.527 85.527 0 0 0-1.38-1.368l-.1-.098c-.458-.444-.92-.884-1.382-1.323a7.55 7.55 0 0 0-.297-.267 3.579 3.579 0 0 0-.354-.258c-.114.046-.219.097-.412.285a.975.975 0 0 0-.093.182c-.012.034-.021.067-.04.2 0 0-4.574-6.218-5.495-7.602-.928-1.386.344-.652.344-.652s4.641 3.598 6.822 5.093l.025.016c.233.156.422.282.453.45a2 2 0 0 0-.166.203 2.615 2.615 0 0 0-.118.204c-.026.057-.047.12-.064.183-.007.028-.011.057-.023.146l-.014.101.001.13c.001.049.002.102 0 .163.095.144.188.286.289.423.11.154.227.302.346.445.143.175.286.341.442.508l.042.046c.116.125.232.25.35.373.18.191.369.379.56.563l.304.3c.367.36.735.721 1.081 1.094 2.298 2.468 4.676 4.864 7.052 7.258 1.161 1.17 2.322 2.34 3.473 3.517 2.583 2.643 5.159 5.293 7.735 7.944l1.238 1.274c3.341-3.347 6.684-6.692 10.027-10.038l.034-.034c1.66-1.66 3.319-3.322 4.978-4.983l1.222-1.219.004-.003c1.228-1.225 2.458-2.452 3.676-3.69.42-.428.836-.863 1.248-1.3l.066-.069.001-.002c.03-.03.059-.06.088-.092l.038-.04c.437-.467.87-.935 1.3-1.406.064-.07.127-.141.262-.301.069-.085.134-.173.253-.36-.046-.113-.099-.219-.287-.41l-.001-.001c-.013-.01-.03-.022-.182-.092a1.099 1.099 0 0 0-.197-.038s6.129-4.668 7.496-5.61c1.366-.948.65.338.65.338s-3.525 4.709-4.988 6.92l-.01.016c-.154.24-.279.436-.448.47a2.145 2.145 0 0 0-.202-.165 2.279 2.279 0 0 0-.206-.118 1.248 1.248 0 0 0-.182-.062 1.102 1.102 0 0 0-.132-.02l-.114-.014c-.044-.001-.089 0-.138.002a4.552 4.552 0 0 1-.153.003l-.019.013c-.134.091-.27.183-.399.281a11.302 11.302 0 0 0-.939.803l-.068.066c-.115.11-.23.221-.343.334-.188.182-.373.373-.554.568l-.259.273-.001.001c-.366.386-.732.772-1.11 1.136-2.427 2.336-4.78 4.752-7.134 7.167-1.151 1.182-2.303 2.364-3.462 3.536-2.66 2.69-5.33 5.372-7.998 8.054l-.96.965c.541.558 1.084 1.115 1.627 1.672l.001.001.001.001 1.775 1.823.118.122.002.001.001.002c3.067 3.162 6.136 6.326 9.173 9.523 1.234 1.3 2.47 2.592 3.9 3.692.253.192.512.376.776.553.063.042.128.081.192.12.038.023.077.046.114.07l.045.028c.147.094.293.187.445.273.22.127.448.242.676.354l.1.052c.048.025.096.05.146.074.315.147.639.281.974.402.266.093.426.472.546.877.123.076.247.15.38.228l.002.001.235.14c.173.106.344.217.503.344l.157.126c.646.523 1.299 1.05 1.888 1.64.445.45.702.72.808.987a.598.598 0 0 1 .037.193.894.894 0 0 1-.103.394c-.031.064-.065.13-.116.216-.041.07-.09.15-.176.285l-.179.275c.05.012.098.028.145.044l.052.018c.031.01.06.018.256.03.091-.037.179-.067.363-.115l.005-.001c.048-.012.1-.025.26-.046.037-.005.075-.01.236-.01h.004c.029 0 .064.001.212.02l.007.002c.024.004.058.01.195.047.02.006.041.012.188.072.017.008.035.016.176.094h.002l.006.004.014.01c.02.012.057.038.144.097.013.01.025.019.156.127l.002.002a4.558 4.558 0 0 1 .166.156l.122.128.054.062.079.091.123.15c.076.094.15.19.225.287l.066.085a1.088 1.088 0 0 0 .056.075c.02.025.04.05.057.076.085.108.145.192.217.416-.002.015-.012.034-.08.175l-.005.005c-.021.029-.044.06-.128.143-.042.04-.083.08-.201.179a22.17 22.17 0 0 1-.61.481l.376.442.005.007c.517.61 1.032 1.217 1.553 1.814.096.109.207.208.318.306.19.168.376.334.481.543.093.184.07.425.048.666-.01.104-.02.209-.02.308-.103-.004-.218.006-.333.016-.25.022-.503.044-.637-.071-.731-.626-1.399-1.327-2.067-2.028l-.092-.097c-.204-.21-.393-.366-.584-.42z"
        fill="currentColor" />
    <path fill-rule="evenodd" clip-rule="evenodd"
        d="M29.712 57.125c.55 0 1.039-.108 1.465-.322.427-.215.757-.52.992-.915.234-.395.352-.858.352-1.388 0-.53-.118-.992-.352-1.388a2.363 2.363 0 0 0-.992-.915c-.426-.215-.915-.322-1.465-.322h-2.379v5.25h2.379zm-.956-1.185v-2.88h.898c.431 0 .777.127 1.038.383.261.255.392.607.392 1.057 0 .45-.13.803-.392 1.057-.26.255-.607.383-1.038.383h-.898z"
        fill="currentColor" />
    <path
        d="M35.86 54.328v2.797h-1.395v-5.25h1.171l2.22 2.797v-2.797h1.394v5.25h-1.17l-2.22-2.797zM46.54 51.875h-1.408l-1.393 3.42-1.366-3.42h-1.537l2.148 5.25h1.401l2.156-5.25z"
        fill="currentColor" />
    <path fill-rule="evenodd" clip-rule="evenodd"
        d="M49.455 55.73v1.395h-1.422v-5.25h2.299c.455 0 .85.079 1.185.236.335.158.594.383.776.675.182.293.273.636.273 1.032 0 .38-.085.71-.255.993a1.75 1.75 0 0 1-.73.664l1.086 1.65h-1.523l-.913-1.395h-.776zm0-1.147v-1.538h.79c.293 0 .513.067.661.203.149.135.223.325.223.57 0 .245-.074.433-.223.566-.148.132-.368.199-.66.199h-.79z"
        fill="currentColor" />
    <path
        d="M31.556 47.15h16.888v1.05H31.556v-1.05zM48.444 18.8H31.556v1.05h16.888V18.8zM51.606 14.905c-.353.147-.782.22-1.287.22-.43 0-.846-.05-1.25-.151-.404-.101-.732-.236-.984-.404l.492-1.053c.237.149.512.27.826.36.313.092.62.137.924.137.575 0 .863-.137.863-.41 0-.145-.082-.252-.246-.321-.164-.07-.428-.144-.792-.22a7.855 7.855 0 0 1-1-.264 1.688 1.688 0 0 1-.689-.45c-.191-.207-.287-.486-.287-.837 0-.308.088-.585.265-.833.176-.248.44-.443.791-.588.351-.144.781-.216 1.291-.216.349 0 .692.037 1.03.112.339.074.637.184.894.328l-.462 1.06c-.505-.26-.995-.39-1.47-.39-.297 0-.514.043-.65.127-.137.084-.205.193-.205.328s.08.236.242.303c.162.067.422.137.78.209.404.082.739.17 1.004.263.265.094.495.243.69.447.194.205.29.482.29.833 0 .303-.088.577-.264.822-.177.245-.442.441-.796.588zM28.72 15.024v-2.603l1.355 2.105h.666l1.364-2.177.015 2.675h1.378l-.015-5.048h-1.234l-1.818 2.913-1.863-2.913h-1.235v5.048h1.386z"
        fill="currentColor" />
    <path fill-rule="evenodd" clip-rule="evenodd"
        d="M37.32 15.024v-1.32h.924c.48 0 .896-.075 1.25-.227.353-.151.626-.366.818-.645a1.7 1.7 0 0 0 .288-.988c0-.38-.096-.71-.288-.992a1.834 1.834 0 0 0-.818-.649c-.354-.151-.77-.227-1.25-.227h-2.423v5.048h1.5zm0-3.923v1.478h.833c.308 0 .54-.063.697-.19.157-.128.235-.31.235-.545 0-.236-.078-.418-.235-.548-.156-.13-.389-.195-.697-.195h-.833z"
        fill="currentColor" />
    <path
        d="M46.618 15.024v-1.132h-2.53V9.976h-1.5v5.048h4.03zM16.679 44.525v-2.65l-2.41-.455V25.882h4.14l.186 2.469h3.46v-5.876H2v5.876h3.446l.185-2.468h4.125V41.42l-2.41.455v2.65h9.333zM64.816 44.525v-2.65l-2.324-.455v-6.057h8.85v6.057l-2.325.455v2.65H78v-2.65l-2.324-.455V25.595L78 25.14v-2.665h-8.983v2.665l2.324.455v6.36h-8.849v-6.36l2.324-.455v-2.665h-8.983v2.665l2.31.455V41.42l-2.31.455v2.65h8.983z"
        fill="currentColor" />
</svg>