<svg xmlns="http://www.w3.org/2000/svg" fill="currentColor" viewBox="0 0 64 48">
    <path fill-rule="evenodd" clip-rule="evenodd"
        d="m52.633 45.993-.255.017c-.12.046-.234.166-.346.369-.292.531-.56.376-.922.014a5.525 5.525 0 0 0-.369-.325 10.236 10.236 0 0 0-.2-.16l-.042-.032-.087-.068-.002-.002a16.002 16.002 0 0 1-.475-.379 5.02 5.02 0 0 1-.236-.214 3.117 3.117 0 0 1-.208-.22l-.001-.002-.01-.01a9.699 9.699 0 0 1-.088-.105l-.12-.15c-.08-.098-.164-.195-.25-.295a14.322 14.322 0 0 1-.416-.5 3.349 3.349 0 0 1-.279-.417 2.392 2.392 0 0 1-.272-.725 2.43 2.43 0 0 1-.015-.708l-.241.216-.166.147-.055.049-.088.077-.038.034a8.883 8.883 0 0 0-.343-.481l-.085-.115-.11-.145h-.001c-.134-.175-.275-.36-.45-.598-.052-.071-.1-.143-.221-.32a5.37 5.37 0 0 1-.243-.413l-.011-.022-.01-.02-.012-.02a3.062 3.062 0 0 1-.217-.522 7.787 7.787 0 0 0-.883-1.918c-.578-.917-1.317-1.713-2.088-2.499-2.284-2.333-4.58-4.659-6.873-6.984l-.003-.003H35.9v-.001a5227.39 5227.39 0 0 1-3.815-3.87l-1.142 1.13v.001h-.001c-.533.53-1.067 1.058-1.601 1.585a997.562 997.562 0 0 1-7.35 7.204c-.99.957-1.975 1.914-2.81 3.02a11.95 11.95 0 0 0-.418.598c-.033.05-.063.101-.094.152l-.025.043-.025.041-.01.017c-.075.12-.15.239-.219.362a12.1 12.1 0 0 0-.266.52 2.4 2.4 0 0 1-.042.084c-.018.035-.037.07-.053.107a8.98 8.98 0 0 0-.301.75c-.069.204-.36.33-.67.425-.052.084-.1.168-.153.258l-.127.218c-.08.134-.164.265-.26.388l-.084.106c-.401.505-.806 1.015-1.258 1.476-.344.345-.55.544-.753.628a.48.48 0 0 1-.149.03.7.7 0 0 1-.304-.076 2.003 2.003 0 0 1-.168-.087 7.363 7.363 0 0 1-.22-.133l-.06-.037-.068-.043-.086-.054c-.01.044-.026.09-.04.133l-.006.018a.782.782 0 0 0-.02.196c.028.07.052.137.091.277l.001.003c.01.036.02.076.038.2v.002c.004.028.008.059.01.179v.006c-.001.022-.002.05-.015.16v.002c-.003.02-.007.042-.035.153v.001c-.005.016-.01.035-.054.143a1.754 1.754 0 0 1-.07.136l-.004.005c-.007.012-.02.034-.081.123l-.003.004a6.2 6.2 0 0 1-.094.118 6.08 6.08 0 0 1-.105.114s-.083.083-.113.11l-.008.007a10.767 10.767 0 0 1-.2.172l-.023.02c-.093.076-.188.15-.284.225l-.06.047-.054.042a.87.87 0 0 1-.319.169.505.505 0 0 1-.101-.044l-.035-.016-.003-.002c-.023-.017-.047-.034-.112-.098-.031-.032-.063-.064-.14-.153a24.31 24.31 0 0 1-.376-.462l-.347.3-.006.005-.002.001c-.46.397-.919.793-1.37 1.194-.082.074-.157.16-.232.246-.128.146-.254.291-.415.374-.14.071-.326.056-.511.041a2.692 2.692 0 0 0-.239-.012 2.206 2.206 0 0 0-.015-.257c-.019-.192-.038-.384.05-.487.475-.566 1.01-1.084 1.544-1.602l.073-.071c.161-.158.279-.304.32-.45l-.02-.253c-.049-.118-.17-.23-.377-.338-.54-.283-.387-.55-.024-.913.09-.092.174-.188.324-.368a10.812 10.812 0 0 0 .257-.325c.114-.147.232-.3.382-.48.06-.07.12-.138.214-.236.07-.073.143-.142.22-.207l.002-.002.114-.098a9.873 9.873 0 0 0 .447-.372c.156-.134.318-.274.5-.416l.045-.033a3.712 3.712 0 0 1 .374-.248 2.486 2.486 0 0 1 .73-.277 2.542 2.542 0 0 1 .714-.022 68.15 68.15 0 0 1-.231-.249l-.14-.15-.163-.176c.104-.071.207-.143.309-.218.056-.04.112-.082.213-.157l.075-.057.125-.095c.182-.139.372-.284.62-.467.072-.052.143-.102.32-.222a5.753 5.753 0 0 1 .408-.242l.03-.015a4.42 4.42 0 0 0 .041-.022h.001a3.18 3.18 0 0 1 .523-.219 7.983 7.983 0 0 0 1.928-.896c.921-.581 1.717-1.321 2.503-2.092a2518.63 2518.63 0 0 0 6.99-6.884l.002-.003c1.146-1.13 2.291-2.262 3.438-3.392l.255-.25.008-.01.261-.256-7.292-7.41-.012-.012-.001-.002-.008-.009a34582.715 34582.715 0 0 0-5.11-5.195l-.004-.005-.003-.003a431.503 431.503 0 0 0-2.869-2.909 65.905 65.905 0 0 0-.99-.967l-.078-.075-.077-.074a145.11 145.11 0 0 0-1.071-1.008 5.889 5.889 0 0 0-.23-.204 2.773 2.773 0 0 0-.275-.196.863.863 0 0 0-.318.217.745.745 0 0 0-.073.138.763.763 0 0 0-.03.152S9.435 1.7 8.722.645c-.719-1.056.266-.497.266-.497s3.596 2.742 5.285 3.88l.02.013c.18.118.326.214.35.343a1.548 1.548 0 0 0-.128.154 2.017 2.017 0 0 0-.092.156.913.913 0 0 0-.05.14c-.005.02-.008.042-.017.11l-.01.077c-.002.032-.001.064 0 .099v.124a6.786 6.786 0 0 0 .492.662c.11.133.221.26.342.387l.032.035a19.301 19.301 0 0 0 .706.713l.235.228c.284.275.569.55.837.834 1.78 1.88 3.622 3.706 5.462 5.53.9.891 1.799 1.783 2.69 2.68 2 2.013 3.997 4.033 5.992 6.052l.959.97c2.588-2.55 5.177-5.098 7.766-7.647l.027-.026.081-.08.007-.007.006-.006 3.762-3.703.946-.93.003-.002c.951-.933 1.904-1.868 2.848-2.81.325-.327.647-.659.966-.991l.051-.053.001-.001.068-.07.03-.032c.338-.355.674-.712 1.007-1.07a6.01 6.01 0 0 0 .202-.23c.054-.065.105-.131.197-.274a.851.851 0 0 0-.223-.313.792.792 0 0 0-.141-.07.865.865 0 0 0-.153-.029S54.292 1.434 55.35.717c1.058-.723.504.257.504.257s-2.731 3.587-3.864 5.272l-.007.012c-.12.183-.217.332-.348.358a1.623 1.623 0 0 0-.156-.125 1.756 1.756 0 0 0-.16-.09.979.979 0 0 0-.14-.047c-.02-.006-.042-.008-.103-.016l-.088-.01c-.034-.001-.069 0-.107.001a3.532 3.532 0 0 1-.118.003l-.015.01c-.104.07-.209.14-.31.214a8.68 8.68 0 0 0-.727.612l-.052.05c-.09.084-.18.168-.266.255-.145.138-.289.284-.43.432l-.2.208c-.284.295-.568.589-.86.866-1.88 1.78-3.703 3.62-5.526 5.46-.892.901-1.784 1.802-2.682 2.695A3037.78 3037.78 0 0 1 33.5 23.27l-.744.736 1.26 1.272v.001h.001v.001l.002.001.005.005 1.37 1.384.09.093h.002l.001.002a982.837 982.837 0 0 1 7.105 7.256c.956.99 1.913 1.975 3.021 2.813.196.146.396.286.6.421.05.032.1.062.15.092l.041.024.047.029.035.021c.113.072.227.143.345.208.17.096.346.184.523.27.026.012.052.026.077.04a9.126 9.126 0 0 0 .869.363c.205.07.33.359.422.667.096.058.191.114.295.174l.183.108c.134.08.267.165.39.261l.12.097c.502.398 1.007.8 1.464 1.249.345.343.544.55.626.752a.45.45 0 0 1 .028.147.673.673 0 0 1-.08.3c-.024.05-.05.1-.09.165a5.828 5.828 0 0 1-.136.217l-.138.21c.038.008.075.02.112.033l.04.014a.78.78 0 0 0 .198.022c.071-.028.139-.05.282-.087l.004-.001c.037-.01.077-.02.2-.035h.003c.028-.004.06-.008.18-.008h.004c.022 0 .05.002.164.016l.005.001c.019.004.045.008.151.036a1.527 1.527 0 0 1 .283.126v.001l.006.003.01.007.03.019.082.055c.01.007.02.014.121.097l.002.001a3.563 3.563 0 0 1 .128.12l.094.097.042.047.061.07c.022.024.043.05.096.113l.174.219.051.065.008.01.01.014.026.033.029.038.015.02a.837.837 0 0 1 .167.317c0 .01-.007.022-.043.096l-.019.037-.003.005c-.016.021-.034.045-.1.108-.032.03-.063.061-.155.137-.115.093-.258.204-.472.366l.29.337.005.005c.4.465.8.927 1.203 1.382.074.083.16.158.246.233.146.128.291.255.373.414.071.14.054.324.037.508-.008.08-.015.158-.016.234a2.31 2.31 0 0 0-.258.013c-.194.017-.39.033-.493-.055-.567-.477-1.083-1.01-1.6-1.544l-.072-.075c-.159-.16-.305-.278-.453-.32ZM25.46 34.4h13.082v.8H25.459v-.8Zm0-21.6h13.082v.8H25.459v-.8ZM0 16h16v1.565H9.354v13.287c0 .44-.059.742-.176.904-.094.163-.352.244-.774.244H6.681V17.565H0V16Zm48 16V17.009c0-.441.07-.72.21-.835.163-.116.432-.174.805-.174h1.68v6.956h10.61V16H64v14.922c0 .44-.058.73-.175.87-.117.138-.397.208-.84.208h-1.68v-7.478h-10.61V32H48Z" />
    <style>
        path { fill: #000; }
        @media (prefers-color-scheme: dark) {
        path { fill: #FFF; }
        }
    </style>
</svg>